<svg xmlns="http://www.w3.org/2000/svg" viewBox="0 0 32 32">
  <defs>
    <linearGradient id="bg" x1="0%" y1="0%" x2="100%" y2="100%">
      <stop offset="0%" style="stop-color:#8b5cf6"/>
      <stop offset="100%" style="stop-color:#7c3aed"/>
    </linearGradient>
  </defs>
  <rect width="32" height="32" rx="6" fill="url(#bg)"/>
  <path d="M16 6l1.5 4.5L22 12l-4.5 1.5L16 18l-1.5-4.5L10 12l4.5-1.5L16 6z" fill="white"/>
  <path d="M22 18l0.8 2.4 2.4 0.8-2.4 0.8-0.8 2.4-0.8-2.4-2.4-0.8 2.4-0.8 0.8-2.4z" fill="white" opacity="0.8"/>
  <path d="M10 20l0.6 1.8 1.8 0.6-1.8 0.6-0.6 1.8-0.6-1.8-1.8-0.6 1.8-0.6 0.6-1.8z" fill="white" opacity="0.6"/>
</svg>
